<svg width="208" height="80" viewBox="0 0 208 80" fill="none" xmlns="http://www.w3.org/2000/svg">
<path d="M61.0277 31.1854C61.0277 24.5925 55.3648 19.0234 48.6733 19.0234H30.8452C27.0738 19.0234 24 22.1009 24 25.8767V53.6747C24 57.4564 27.0738 60.528 30.8452 60.528H48.8684C55.5717 60.528 61.0218 55.0714 61.0218 48.3601C61.0218 45.0992 59.7272 42.0335 57.481 39.7728C59.7331 37.512 61.0277 34.4345 61.0218 31.1736L61.0277 31.1854ZM28.8176 55.4265C28.1319 55.024 27.7359 54.0061 27.7359 52.6449V45.259C28.3565 45.4898 29.0186 45.6081 29.7102 45.6081C30.9456 45.6081 32.2698 45.2412 33.5761 44.5192L38.2696 41.9152L42.9631 44.5192C44.1158 45.1583 44.8074 45.9632 44.8074 46.6616C44.8074 47.3599 44.1158 48.1648 42.9631 48.804L31.7614 55.024C30.5732 55.6869 29.4974 55.8348 28.8117 55.4265H28.8176ZM31.7673 41.2523C30.5792 41.9152 29.5033 42.0572 28.8176 41.6548C28.2915 41.347 27.9428 40.6782 27.8068 39.7787C27.9428 38.8732 28.2974 38.2103 28.8176 37.9026C29.0718 37.7546 29.3792 37.6777 29.7279 37.6777C30.3191 37.6777 31.0225 37.8908 31.7673 38.305L34.4214 39.7787L31.7673 41.2523ZM33.5761 35.0323C31.5309 33.896 29.456 33.6474 27.7359 34.2925V26.9124C27.7359 25.5512 28.1319 24.5333 28.8176 24.1309C29.0718 23.9829 29.3792 23.906 29.7279 23.906C30.3191 23.906 31.0225 24.119 31.7673 24.5333L42.969 30.7534C44.1217 31.3925 44.8133 32.1974 44.8133 32.8958C44.8133 33.5941 44.1217 34.399 42.969 35.0382L38.2755 37.6422L33.582 35.0382L33.5761 35.0323ZM53.5087 41.3411C55.8731 42.9094 57.28 45.5371 57.28 48.366C57.28 53.0118 53.5028 56.7936 48.8625 56.7936H36.2716L44.7719 52.0768C47.166 50.7452 48.5433 48.7744 48.5433 46.6616C48.5433 44.5488 47.1719 42.578 44.7719 41.2523L42.1178 39.7787L44.7719 38.305C47.166 36.9734 48.5433 35.0027 48.5433 32.8899C48.5433 30.777 47.1719 28.8063 44.7719 27.4747L36.2775 22.7578H48.6615C53.3313 22.7578 57.28 26.6165 57.28 31.1795C57.28 34.0143 55.8731 36.642 53.5027 38.2163L51.1619 39.7728L53.5087 41.3292V41.3411Z" fill="url(#paint0_linear_5452_9348)"/>
<path d="M93.8115 45.2828C93.8115 47.4134 93.0667 49.2244 91.5771 50.7158C90.0875 52.1716 88.0659 52.9173 85.5418 52.9173H73.8672V26.6641H85.0098C87.3506 26.6641 89.1594 27.3032 90.4717 28.6171C91.784 29.9309 92.4224 31.4578 92.4224 33.2037C92.4224 35.5828 91.0037 37.7844 88.8402 38.5301C92.0677 39.3823 93.8056 42.1166 93.8056 45.2828H93.8115ZM78.6612 30.9666V37.0446H84.0581C86.328 37.0446 87.5693 35.6243 87.5693 33.9198C87.5693 32.3219 86.328 30.9725 84.2354 30.9725H78.6612V30.9666ZM84.6256 48.5911C87.2856 48.5911 88.8107 46.8867 88.8107 44.9336C88.8107 42.8386 87.3211 41.1696 84.6256 41.1696H78.6612V48.597H84.6256V48.5911Z" fill="white"/>
<path d="M97.3292 44.8558V33.6289H101.975V44.8558C101.975 47.448 103.5 49.1583 106.019 49.1583C108.537 49.1583 110.097 47.4539 110.097 44.8558V33.6289H114.749V44.8558C114.749 50.2236 111.451 53.384 106.019 53.384C100.586 53.384 97.3232 50.2236 97.3232 44.8558H97.3292Z" fill="white"/>
<path d="M123.799 52.9229H119.188V25.918H123.799V52.9229Z" fill="white"/>
<path d="M141.687 33.6289H146.765L138.353 52.8868H134.877L126.501 33.6289H131.608L136.686 46.5602L141.687 33.6289Z" fill="white"/>
<path d="M163.049 25.918H167.66V52.9229H163.156V50.4017C161.56 52.3902 159.503 53.3845 157.014 53.3845C154.283 53.3845 151.978 52.4257 150.163 50.5082C148.354 48.5552 147.432 46.1406 147.432 43.2584C147.432 40.3762 148.354 38.0326 150.163 36.0796C152.007 34.1266 154.277 33.1678 156.979 33.1678C159.426 33.1678 161.448 34.1266 163.049 36.0796V25.918ZM161.737 47.4485C162.766 46.3122 163.298 44.9273 163.298 43.2584C163.298 41.5894 162.766 40.2401 161.702 39.1038C160.673 37.9675 159.325 37.3993 157.658 37.3993C155.992 37.3993 154.644 37.9675 153.615 39.1038C152.587 40.2401 152.055 41.625 152.055 43.2584C152.055 44.8918 152.587 46.3122 153.615 47.4485C154.644 48.5848 155.992 49.1529 157.658 49.1529C159.325 49.1529 160.709 48.5848 161.737 47.4485Z" fill="white"/>
<path d="M170.067 49.4409L172.447 46.8509C173.605 48.4049 175.438 49.3438 177.148 49.3438C178.66 49.3438 179.722 48.5344 179.722 47.4983C179.722 46.8186 179.271 46.2357 178.402 45.8149C178.113 45.653 177.405 45.3617 176.28 44.9408C175.186 44.5198 174.447 44.1961 174.061 44.0019C172.099 43.0307 171.134 41.5414 171.134 39.5342C171.134 38.0126 171.713 36.75 172.871 35.7733C174.029 34.802 175.572 34.3164 177.47 34.3164C179.947 34.3164 181.94 35.1905 183.457 36.9064L181.271 39.5936C180.144 38.3957 178.826 37.7805 177.346 37.7805C176.028 37.7805 175.224 38.4927 175.224 39.4316C175.224 40.2086 175.738 40.7914 176.736 41.1475C179.244 42.1511 180.66 42.7338 180.954 42.8958C182.916 43.9642 183.913 45.4533 183.913 47.3634C183.913 48.9498 183.302 50.2772 182.048 51.3456C180.793 52.4139 179.153 52.9319 177.121 52.9319C174.291 52.9319 171.713 51.734 170.073 49.4355L170.067 49.4409Z" fill="white"/>
<defs>
<linearGradient id="paint0_linear_5452_9348" x1="24" y1="39.7787" x2="61.0277" y2="39.7787" gradientUnits="userSpaceOnUse">
<stop stop-color="#A8FF22"/>
<stop offset="1" stop-color="#00CA00"/>
</linearGradient>
</defs>
</svg>
