<svg width="42" height="43" viewBox="0 0 42 43" fill="none" xmlns="http://www.w3.org/2000/svg">
<path d="M31.9037 0.125H10.0749C4.51067 0.125 0 4.63797 0 10.205V32.045C0 37.612 4.51067 42.125 10.0749 42.125H31.9037C37.4679 42.125 41.9786 37.612 41.9786 32.045V10.205C41.9786 4.63797 37.4679 0.125 31.9037 0.125Z" fill="#226600"/>
<path d="M32.3247 15.9077C32.3247 11.9048 28.8579 8.52344 24.7613 8.52344H13.8469C11.5381 8.52344 9.65625 10.3919 9.65625 12.6845V29.5623C9.65625 31.8585 11.5381 33.7234 13.8469 33.7234H24.8807C28.9845 33.7234 32.3211 30.4104 32.3211 26.3356C32.3211 24.3556 31.5286 22.4943 30.1534 21.1217C31.5322 19.749 32.3247 17.8804 32.3211 15.9005L32.3247 15.9077ZM12.6056 30.6259C12.1858 30.3816 11.9433 29.7636 11.9433 28.9371V24.4527C12.3233 24.5928 12.7287 24.6646 13.1521 24.6646C13.9084 24.6646 14.719 24.4419 15.5188 24.0035L18.3922 22.4224L21.2655 24.0035C21.9712 24.3915 22.3946 24.8803 22.3946 25.3043C22.3946 25.7283 21.9712 26.2169 21.2655 26.605L14.4078 30.3816C13.6804 30.7841 13.0218 30.8739 12.602 30.6259H12.6056ZM14.4114 22.02C13.684 22.4224 13.0254 22.5086 12.6056 22.2643C12.2835 22.0774 12.07 21.6714 11.9868 21.1252C12.07 20.5754 12.2871 20.173 12.6056 19.9862C12.7612 19.8964 12.9494 19.8496 13.1629 19.8496C13.5248 19.8496 13.9554 19.9789 14.4114 20.2305L16.0362 21.1252L14.4114 22.02ZM15.5188 18.2434C14.2667 17.5534 12.9965 17.4025 11.9433 17.7943V13.3134C11.9433 12.4869 12.1858 11.8688 12.6056 11.6245C12.7612 11.5347 12.9494 11.488 13.1629 11.488C13.5248 11.488 13.9554 11.6173 14.4114 11.8688L21.2691 15.6454C21.9749 16.0335 22.3982 16.5222 22.3982 16.9462C22.3982 17.3702 21.9749 17.8589 21.2691 18.247L18.3958 19.828L15.5224 18.247L15.5188 18.2434ZM27.7215 22.0739C29.1692 23.0261 30.0304 24.6215 30.0304 26.3392C30.0304 29.1599 27.718 31.456 24.8772 31.456H17.169L22.3728 28.5922C23.8386 27.7836 24.6817 26.5871 24.6817 25.3043C24.6817 24.0214 23.8422 22.8249 22.3728 22.02L20.7481 21.1252L22.3728 20.2305C23.8386 19.422 24.6817 18.2254 24.6817 16.9426C24.6817 15.6598 23.8422 14.4632 22.3728 13.6547L17.1726 10.7908H24.7541C27.6129 10.7908 30.0304 13.1337 30.0304 15.9041C30.0304 17.6253 29.1692 19.2208 27.718 20.1766L26.2849 21.1217L27.7215 22.0667V22.0739Z" fill="#C0F22F" fill-opacity="0.99"/>
<path d="M24.7624 8.39844C28.9255 8.39844 32.4522 11.8338 32.4522 15.9092L32.4473 15.91C32.4486 17.8791 31.6756 19.7378 30.3287 21.1231C31.6738 22.5101 32.4481 24.365 32.4481 26.337C32.448 30.4823 29.0545 33.851 24.8822 33.8511H13.848C11.4707 33.851 9.53125 31.9299 9.53125 29.5633V12.6862C9.53125 10.3232 11.4706 8.39851 13.848 8.39844H24.7624ZM22.4348 13.5459L22.7077 13.705C24.0362 14.5232 24.809 15.6847 24.8092 16.9437C24.8092 18.2027 24.0334 19.3649 22.7077 20.183L22.4348 20.3422L21.0098 21.1264L22.4348 21.9106L22.7077 22.0689C24.0366 22.8843 24.8092 24.0468 24.8092 25.3059C24.809 26.5649 24.0333 27.7264 22.7077 28.5445L22.4348 28.7037L17.6613 31.3311H24.878C27.6501 31.3311 29.9057 29.0907 29.9057 26.3403C29.9056 24.6655 29.0657 23.1095 27.6534 22.1805L27.5968 22.1428V22.1354L26.2169 21.2281L26.0571 21.1231L26.2169 21.0181L27.6501 20.0723L27.9084 19.8902C29.1674 18.9445 29.9057 17.4787 29.9057 15.9051C29.9055 13.2082 27.5481 10.9184 24.755 10.9184H17.6654L22.4348 13.5459ZM15.5805 24.1156C14.7656 24.5623 13.9343 24.7924 13.1536 24.7924C12.7778 24.7924 12.415 24.7366 12.0705 24.6292V28.9383C12.0705 29.7518 12.3105 30.3087 12.6698 30.5181L12.6985 30.5345C13.0615 30.7264 13.6514 30.6584 14.3481 30.2729L21.2058 26.4961L21.4492 26.351C21.6787 26.2021 21.8646 26.0441 22.001 25.8866C22.1839 25.6758 22.2698 25.4761 22.27 25.3059C22.27 25.1356 22.1841 24.9353 22.001 24.7243C21.8646 24.567 21.6785 24.4096 21.4492 24.2608L21.2058 24.1156L18.3927 22.5669L15.5805 24.1156ZM13.1642 19.9772C12.969 19.9772 12.8033 20.0198 12.6698 20.0969C12.4021 20.2545 12.1981 20.605 12.1155 21.1256C12.1981 21.6452 12.3989 21.9995 12.6698 22.1567L12.7403 22.1928C13.1065 22.358 13.6801 22.2821 14.3514 21.9106H14.3522L15.7756 21.1264L14.3522 20.3422C13.9079 20.097 13.498 19.9772 13.1642 19.9772ZM13.1642 11.6149C13.0177 11.6149 12.8877 11.6392 12.7756 11.6838L12.6698 11.7347C12.3105 11.944 12.0705 12.501 12.0705 13.3145V17.6204C13.0603 17.3106 14.2073 17.4462 15.341 18.0092L15.5805 18.1347L15.5968 18.1429L15.6001 18.1462L18.3968 19.6851L21.2099 18.138L21.4533 17.9928C21.6825 17.8441 21.8679 17.6858 22.0044 17.5286C22.1873 17.3175 22.2732 17.118 22.2733 16.9477C22.2733 16.7774 22.1875 16.5772 22.0044 16.3662C21.8679 16.209 21.6825 16.0513 21.4533 15.9027L21.2099 15.7575L14.3522 11.9808C13.9079 11.7356 13.498 11.6149 13.1642 11.6149Z" stroke="#C0F22F" stroke-opacity="0.99" stroke-width="0.3"/>
</svg>
