<svg width="38" height="42" viewBox="0 0 38 42" fill="none" xmlns="http://www.w3.org/2000/svg">
<path d="M37.0277 12.1854C37.0277 5.59249 31.3648 0.0234375 24.6733 0.0234375H6.84516C3.07382 0.0234375 0 3.10092 0 6.87675V34.6747C0 38.4564 3.07382 41.528 6.84516 41.528H24.8684C31.5717 41.528 37.0218 36.0714 37.0218 29.3601C37.0218 26.0992 35.7272 23.0335 33.481 20.7728C35.7331 18.512 37.0277 15.4345 37.0218 12.1736L37.0277 12.1854ZM4.81762 36.4265C4.13192 36.024 3.73587 35.0061 3.73587 33.6449V26.259C4.35655 26.4898 5.0186 26.6081 5.71021 26.6081C6.94565 26.6081 8.26976 26.2412 9.57613 25.5192L14.2696 22.9152L18.9631 25.5192C20.1158 26.1583 20.8074 26.9632 20.8074 27.6616C20.8074 28.3599 20.1158 29.1648 18.9631 29.804L7.76139 36.024C6.57324 36.6869 5.49741 36.8348 4.81171 36.4265H4.81762ZM7.7673 22.2523C6.57915 22.9152 5.50332 23.0572 4.81762 22.6548C4.29152 22.347 3.94276 21.6782 3.80681 20.7787C3.94276 19.8732 4.29743 19.2103 4.81762 18.9026C5.0718 18.7546 5.37918 18.6777 5.72794 18.6777C6.31906 18.6777 7.02249 18.8908 7.7673 19.305L10.4214 20.7787L7.7673 22.2523ZM9.57613 16.0323C7.53086 14.896 5.45603 14.6474 3.73587 15.2925V7.91244C3.73587 6.55125 4.13192 5.53331 4.81762 5.13087C5.0718 4.98292 5.37918 4.90598 5.72794 4.90598C6.31906 4.90598 7.02249 5.11903 7.7673 5.53331L18.969 11.7534C20.1217 12.3925 20.8133 13.1974 20.8133 13.8958C20.8133 14.5941 20.1217 15.399 18.969 16.0382L14.2755 18.6422L9.58204 16.0382L9.57613 16.0323ZM29.5087 22.3411C31.8731 23.9094 33.28 26.5371 33.28 29.366C33.28 34.0118 29.5027 37.7936 24.8625 37.7936H12.2716L20.7719 33.0768C23.166 31.7452 24.5433 29.7744 24.5433 27.6616C24.5433 25.5488 23.1719 23.578 20.7719 22.2523L18.1178 20.7787L20.7719 19.305C23.166 17.9734 24.5433 16.0027 24.5433 13.8899C24.5433 11.777 23.1719 9.80627 20.7719 8.47467L12.2775 3.75784H24.6615C29.3313 3.75784 33.28 7.61653 33.28 12.1795C33.28 15.0143 31.8731 17.642 29.5027 19.2163L27.1619 20.7728L29.5087 22.3292V22.3411Z" fill="url(#paint0_linear_2270_1804)"/>
<defs>
<linearGradient id="paint0_linear_2270_1804" x1="0" y1="20.7787" x2="37.0277" y2="20.7787" gradientUnits="userSpaceOnUse">
<stop stop-color="#A8FF22"/>
<stop offset="1" stop-color="#00CA00"/>
</linearGradient>
</defs>
</svg>
