<svg width="413" height="416" viewBox="0 0 413 416" fill="none" xmlns="http://www.w3.org/2000/svg">
<path d="M261.597 184.946C348.761 187.745 412.75 197.006 412.75 208C412.75 218.994 348.761 228.255 261.597 231.054C321.268 295.153 360.017 347.304 352.304 355.078C344.591 362.852 292.847 323.798 229.249 263.657C226.472 351.508 217.283 416 206.375 416C195.467 416 186.278 351.508 183.501 263.657C119.903 323.798 68.1588 362.852 60.4458 355.078C52.7328 347.304 91.4818 295.153 151.152 231.054C63.9885 228.255 0 218.994 0 208C0 197.006 63.9885 187.745 151.152 184.946C91.4817 120.847 52.7327 68.6956 60.4458 60.9218C68.1588 53.1481 119.903 92.2022 183.501 152.343C186.278 64.4924 195.467 0 206.375 0C217.283 0 226.472 64.4924 229.249 152.343C292.847 92.2021 344.591 53.1479 352.304 60.9217C360.017 68.6955 321.268 120.847 261.597 184.946Z" fill="#2F2965"/>
</svg>
