<svg width="551" height="292" viewBox="0 0 551 292" fill="none" xmlns="http://www.w3.org/2000/svg">
<path d="M543.654 106.661C530.522 95.1045 500.55 106.301 468.359 132.29C476.415 111.192 476.941 94.268 468.011 86.4097C454.879 74.8535 424.907 86.05 392.716 112.039C400.772 90.9414 401.299 74.017 392.369 66.1588C379.236 54.6026 349.264 65.799 317.073 91.7882C325.129 70.6905 325.656 53.7661 316.726 45.9079C303.594 34.3516 273.621 45.548 241.43 71.5372C249.486 50.4395 250.013 33.5151 241.083 25.6569C227.951 14.1006 197.978 25.297 165.787 51.2862C173.843 30.1885 174.37 13.2641 165.44 5.40591C147.308 -10.5497 97.1028 16.846 53.3007 66.6217C9.4986 116.397 -11.2908 169.679 6.84077 185.635C19.973 197.191 49.9454 185.994 82.1363 160.005C74.0804 181.103 73.5537 198.027 82.4836 205.886C95.6158 217.442 125.588 206.245 157.779 180.256C149.723 201.354 149.197 218.278 158.127 226.137C171.259 237.693 201.231 226.496 233.422 200.507C225.366 221.605 224.839 238.529 233.769 246.387C246.902 257.944 276.874 246.747 309.065 220.758C301.009 241.856 300.482 258.78 309.412 266.638C322.544 278.195 352.517 266.998 384.708 241.009C376.652 262.107 376.125 279.031 385.055 286.889C403.187 302.845 453.392 275.449 497.194 225.674C540.997 175.898 561.804 122.632 543.654 106.661Z" fill="#65005A" fill-opacity="0.2"/>
</svg>
