<svg width="48" height="58" viewBox="0 0 48 58" fill="none" xmlns="http://www.w3.org/2000/svg">
<g clip-path="url(#clip0_2330_2690)">
<g filter="url(#filter0_d_2330_2690)">
<path d="M24 0C30.3652 0 36.4697 2.53898 40.9706 7.05839C45.4714 11.5778 48 17.7074 48 24.0988C48 32.3299 43.5307 39.0669 38.8213 43.9001C36.4685 46.2887 33.9011 48.4543 31.152 50.3693L30.016 51.1458L29.4827 51.5019L28.4773 52.1446L27.5813 52.6935L26.472 53.3415C25.719 53.773 24.867 54 24 54C23.133 54 22.281 53.773 21.528 53.3415L20.4187 52.6935L19.032 51.8366L18.52 51.5019L17.4267 50.7709C14.4609 48.756 11.6984 46.4548 9.17867 43.9001C4.46933 39.0642 0 32.3299 0 24.0988C0 17.7074 2.52856 11.5778 7.02944 7.05839C11.5303 2.53898 17.6348 0 24 0ZM24 16.0659C22.9494 16.0659 21.9091 16.2737 20.9385 16.6774C19.9679 17.0811 19.086 17.6728 18.3431 18.4187C17.6003 19.1646 17.011 20.0502 16.609 21.0248C16.2069 21.9994 16 23.0439 16 24.0988C16 25.1537 16.2069 26.1983 16.609 27.1729C17.011 28.1475 17.6003 29.0331 18.3431 29.779C19.086 30.5249 19.9679 31.1166 20.9385 31.5203C21.9091 31.924 22.9494 32.1318 24 32.1318C26.1217 32.1318 28.1566 31.2855 29.6569 29.779C31.1571 28.2725 32 26.2293 32 24.0988C32 21.9684 31.1571 19.9252 29.6569 18.4187C28.1566 16.9122 26.1217 16.0659 24 16.0659Z" fill="#D5FF99"/>
<path d="M12 14.727H36V38.8259H12V14.727Z" fill="#D5FF99"/>
<path d="M34.6872 18.7763C34.6872 14.9482 31.3565 11.7147 27.421 11.7147H16.9354C14.7173 11.7147 12.9094 13.5016 12.9094 15.6939V31.8342C12.9094 34.0301 14.7173 35.8135 16.9354 35.8135H27.5357C31.4782 35.8135 34.6837 32.6452 34.6837 28.7484C34.6837 26.855 33.9223 25.075 32.6012 23.7623C33.9258 22.4497 34.6872 20.6628 34.6837 18.7694L34.6872 18.7763ZM15.7429 32.8514C15.3396 32.6178 15.1066 32.0267 15.1066 31.2363V26.9478C15.4717 27.0819 15.8611 27.1506 16.2678 27.1506C16.9945 27.1506 17.7732 26.9375 18.5416 26.5183L21.302 25.0063L24.0625 26.5183C24.7405 26.8894 25.1472 27.3567 25.1472 27.7623C25.1472 28.1677 24.7405 28.6351 24.0625 29.0062L17.4743 32.6178C16.7754 33.0027 16.1427 33.0885 15.7394 32.8514H15.7429ZM17.4777 24.6214C16.7789 25.0063 16.1462 25.0888 15.7429 24.8552C15.4335 24.6764 15.2283 24.2881 15.1484 23.7658C15.2283 23.2401 15.4369 22.8552 15.7429 22.6765C15.8924 22.5906 16.0732 22.5459 16.2783 22.5459C16.6259 22.5459 17.0397 22.6696 17.4777 22.9102L19.0387 23.7658L17.4777 24.6214ZM18.5416 21.0099C17.3387 20.3501 16.1184 20.2058 15.1066 20.5804V16.2953C15.1066 15.5049 15.3396 14.9139 15.7429 14.6802C15.8924 14.5943 16.0732 14.5496 16.2783 14.5496C16.6259 14.5496 17.0397 14.6733 17.4777 14.9139L24.066 18.5254C24.744 18.8966 25.1507 19.3639 25.1507 19.7694C25.1507 20.1749 24.744 20.6422 24.066 21.0133L21.3055 22.5253L18.5451 21.0133L18.5416 21.0099ZM30.2648 24.673C31.6555 25.5836 32.483 27.1093 32.483 28.7519C32.483 31.4494 30.2614 33.6452 27.5322 33.6452H20.1269L25.1264 30.9064C26.5344 30.1332 27.3445 28.989 27.3445 27.7623C27.3445 26.5355 26.5379 25.3912 25.1264 24.6214L23.5653 23.7658L25.1264 22.9102C26.5344 22.137 27.3445 20.9927 27.3445 19.7659C27.3445 18.5392 26.5379 17.3949 25.1264 16.6217L20.1304 13.883H27.414C30.1606 13.883 32.483 16.1235 32.483 18.7729C32.483 20.4188 31.6555 21.9446 30.2614 22.8586L28.8847 23.7623L30.2648 24.6661V24.673Z" fill="#103505"/>
</g>
</g>
<defs>
<filter id="filter0_d_2330_2690" x="-2" y="0" width="52" height="58" filterUnits="userSpaceOnUse" color-interpolation-filters="sRGB">
<feFlood flood-opacity="0" result="BackgroundImageFix"/>
<feColorMatrix in="SourceAlpha" type="matrix" values="0 0 0 0 0 0 0 0 0 0 0 0 0 0 0 0 0 0 127 0" result="hardAlpha"/>
<feOffset dy="2"/>
<feGaussianBlur stdDeviation="1"/>
<feComposite in2="hardAlpha" operator="out"/>
<feColorMatrix type="matrix" values="0 0 0 0 0 0 0 0 0 0 0 0 0 0 0 0 0 0 0.2 0"/>
<feBlend mode="normal" in2="BackgroundImageFix" result="effect1_dropShadow_2330_2690"/>
<feBlend mode="normal" in="SourceGraphic" in2="effect1_dropShadow_2330_2690" result="shape"/>
</filter>
<clipPath id="clip0_2330_2690">
<rect width="48" height="58" fill="white"/>
</clipPath>
</defs>
</svg>
